<svg viewBox="0 0 201 80" xmlns="http://www.w3.org/2000/svg" xml:space="preserve" style="fill-rule:evenodd;clip-rule:evenodd;stroke-linejoin:round;stroke-miterlimit:2"><path d="M43.482 9.572c-.895-.783-1.902-1.342-2.909-1.902-2.909-1.566-6.155-2.797-9.4-3.133-.559-.112-1.23-.112-1.79-.112-2.797 0-5.483.671-7.833 2.238-.447-2.574-4.252-4.588-6.825-5.259-.336-.112-.672-.224-.896-.224-.335 0-.559.112-.895.224-.559.336-.783 1.007-1.007 1.566C3.626 23.723 1.521 64.066 1.297 72.347v1.678c0 .672 0 1.343.336 2.014.783 1.791 2.797 2.574 4.699 3.245.224.112.56.112.784.112h.335c.56-.112.784-.783 1.007-1.231 2.238-6.154 3.81-12.419 6.047-18.573 6.714 7.945 14.285 13.633 24.132 16.878.447.112 2.943.8 3.279.8.335 0 .671-.112.895-.335.112-.224.224-.336.224-.56.111-.224.111-.559.111-.783 0-1.119-.671-2.238-1.454-3.021-1.119-.896-11.198-8.601-16.032-15.588 6.602-6.154 19.739-17.275 22.522-33.2.155-.888.224-1.79.224-2.797 0-4.364-1.567-8.728-4.924-11.414Zm-5.148 5.248c-3.628 11.623-14.062 22.417-19.81 26.917.755-7.973 3.108-23.2 3.713-25.541 4.549-2.829 11.98-2.821 16.097-1.376ZM80.073 50.527c-.56.895-4.253 7.273-11.19 9.511-1.567.448-3.021.671-4.252.671-4.924 0-6.938-3.133-6.938-3.692.783.336 1.567.559 2.35.559a7.262 7.262 0 0 0 3.469-.895c1.79-.895 3.133-2.35 4.476-3.804 3.021-3.245 5.706-7.05 6.714-11.302.223-1.119.447-2.35.447-3.581 0-3.245-1.119-6.49-3.469-8.728-1.902-1.678-4.252-2.573-6.602-3.469-.783-.335-1.678-.671-2.573-.783h-.448c-.783 0-1.678.336-2.574.672-3.356 1.454-5.706 4.587-7.385 7.832-2.35 4.7-3.58 10.071-3.58 15.33 0 1.455.111 2.798.223 4.141.672 4.699 2.481 10.217 6.139 13.204 2.878 2.351 6.452 4.603 12.179 4.475 3.468-.077 8.09-1.79 10.664-4.252 1.007-.895 1.79-1.79 2.461-2.797 1.791-2.574 3.677-6.919 3.357-10.854-.045-.558-.111-1.119-.447-1.679-.336-.671-1.119-1.119-1.902-1.119-.448 0-.896.224-1.119.56ZM60.826 39.785c1.455-2.91 3.581-5.931 6.714-7.162.224-.112.448-.112.671-.112.224 0 .448 0 .56.224.224.112.224.336.224.56v.559C67.54 41.463 63.4 48.401 57.469 53.436c.112-4.7 1.343-9.399 3.357-13.651ZM92.493 69.885c1.007 1.007 4.588 1.902 5.147 1.902h.112c.448-.112.672-.671.784-1.231.335-2.126 3.245-24.169 3.245-36.142 0-.896-.112-1.903-.112-2.686-.112-2.014-.448-4.14-1.343-5.931-1.007-1.678-2.797-3.245-4.7-3.245h-.223c-1.903 1.567-2.574 4.141-3.134 6.49a104.442 104.442 0 0 0-2.685 23.499c0 3.581.224 7.049.559 10.63.224 2.462.672 5.036 2.35 6.714Zm6.714-53.263c1.343 0 10.742-7.609 10.742-9.959v-.112c-.336-1.455-1.343-2.462-2.685-2.462h-.448c-1.007.112-13.428 4.924-13.875 7.498v.111c0 1.231 1.678 4.924 6.266 4.924ZM142.852 66.916c-.339-.305-7.87-2.742-14.486-11.938 3.758-2.269 5.791-4.159 9.261-8.127 1.358-1.553 4.497-6.162 4.844-11.766.035-.57.112-1.231.112-1.79a9.242 9.242 0 0 0-1.678-5.371c-4.367-6.303-16.221-3.771-17.787-.75-.154-2.374-1.594-5.43-4.873-5.59-.67-.032-1.107.387-1.342.784-3.392 5.71-7.152 40.914-6.768 46.981.071 1.117.205 2.35.765 3.245.559.784 2.8 1.423 4.255 1.423.559 0 1.108-.456 1.23-1.119 1.008-2.06 2.079-9.092 3.339-13.308 5.932 5.803 18.773 12.364 23.427 11.084 1.347-.371 1.166-2.441-.299-3.758Zm-21.386-19.072s1.891-10.589 2.062-12.044c3.418-3.617 11.203-5.692 12.964-4.79-.824 6.386-10.003 13.994-15.026 16.834ZM167.017 72.347c5.93-2.238 9.735-8.057 12.085-13.987 2.461-6.155 3.692-12.757 3.692-19.359v-2.238c4.476-.335 8.84-1.342 13.092-2.797.784-.336 1.791-.671 2.462-1.343.56-.447 1.007-1.231 1.007-2.014 0-.112-.112-.336-.112-.448-.224-.783-.783-1.342-1.343-1.678-1.454-.895-3.245-.895-4.811-.895-3.245.112-6.49.336-9.735.895-.448.112-2.365.305-2.813.305-.285-.445-.392-.567-.656-.976-1.687-2.614-4.812-4.141-7.945-4.588-.671-.112-1.231-.112-1.902-.112-2.574 0-5.035.671-7.161 1.902-1.119.56-2.238 1.791-2.238 3.021v.448c-.448-.783-1.343-1.119-2.126-1.119-.56 0-1.007.112-1.455.336-1.231.559-2.126 1.79-2.797 2.909-2.798 4.476-5.26 9.288-6.491 14.323-.559 2.462-.895 5.035-.895 7.609 0 2.685.336 5.371 1.231 7.945.56 2.014 1.455 3.916 2.909 5.595 2.462 2.909 5.161 3.965 9.222 5.706 1.385.594 2.64 1.007 3.647 1.007h.559c.895 0 1.791-.223 2.574-.447Zm.783-43.528a13.603 13.603 0 0 1 4.028-2.014c.672-.224 1.343-.336 1.903-.336 1.454 0 2.692.147 3.85 2.507.049.1-3.85.402-5.641.402h-4.028c-.224 0-.336 0-.336-.112v-.112c0-.223.112-.223.224-.335Zm-10.071 34.352c-.223-.783-.223-1.566-.223-2.35 0-1.231.111-2.461.335-3.58 1.119-5.707 3.021-11.19 4.924-16.785a171.15 171.15 0 0 0 2.461-6.938c4.029 2.238 8.728 3.357 13.316 3.357-1.79 5.595-3.804 11.078-7.161 15.89-3.357 4.811-8.057 8.84-13.652 10.406Z" style="fill:#0d0f12;fill-rule:nonzero"/></svg>